<svg width="22" height="22" viewBox="0 0 22 22" fill="#000000" xmlns="http://www.w3.org/2000/svg">
    <g id="Iconly/Bold/Notification">
        <g id="Notification">
            <path id="Notification_2" fill-rule="evenodd" clip-rule="evenodd"
                d="M17.1482 8.06331C17.1482 9.21458 17.4525 9.89315 18.1221 10.6751C18.6296 11.2512 18.7917 11.9907 18.7917 12.793C18.7917 13.5944 18.5284 14.3551 18.0009 14.9728C17.3104 15.7132 16.3365 16.1859 15.3425 16.2681C13.9022 16.3909 12.4609 16.4943 11.0005 16.4943C9.53921 16.4943 8.09885 16.4324 6.6585 16.2681C5.66364 16.1859 4.68974 15.7132 4.00008 14.9728C3.47259 14.3551 3.20839 13.5944 3.20839 12.793C3.20839 11.9907 3.37147 11.2512 3.87801 10.6751C4.56857 9.89315 4.85282 9.21458 4.85282 8.06331V7.67278C4.85282 6.13098 5.23728 5.12281 6.02897 4.13588C7.20603 2.69656 9.0928 1.83334 10.9595 1.83334H11.0415C12.9483 1.83334 14.8961 2.7381 16.0531 4.23928C16.8038 5.2059 17.1482 6.1716 17.1482 7.67278V8.06331ZM8.31754 18.3891C8.31754 17.9275 8.74117 17.7161 9.13292 17.6256C9.59117 17.5287 12.3835 17.5287 12.8418 17.6256C13.2335 17.7161 13.6571 17.9275 13.6571 18.3891C13.6344 18.8286 13.3765 19.2182 13.0203 19.4656C12.5584 19.8257 12.0164 20.0537 11.4497 20.1359C11.1363 20.1765 10.8284 20.1774 10.5259 20.1359C9.95832 20.0537 9.41625 19.8257 8.95527 19.4647C8.59814 19.2182 8.34031 18.8286 8.31754 18.3891Z"
                fill="#60708F" />
        </g>
    </g>
</svg>