<svg width="24" height="28" viewBox="0 0 24 28" fill="none" xmlns="http://www.w3.org/2000/svg">
<rect x="0.5" y="4.5" width="23" height="23" stroke="#E0E0E0"/>
<path fill-rule="evenodd" clip-rule="evenodd" d="M17.7689 12.3818H22C22 8.98459 19.9644 7 16.5156 7H7.48444C4.03556 7 2 8.98459 2 12.3385V19.6615C2 23.0154 4.03556 25 7.48444 25H16.5156C19.9644 25 22 23.0154 22 19.6615V19.3495H17.7689C15.8052 19.3495 14.2133 17.7975 14.2133 15.883C14.2133 13.9685 15.8052 12.4165 17.7689 12.4165V12.3818ZM17.7689 13.8724H21.2533C21.6657 13.8724 22 14.1983 22 14.6004V17.131C21.9952 17.5311 21.6637 17.8543 21.2533 17.8589H17.8489C16.8548 17.872 15.9855 17.2084 15.76 16.2643C15.6471 15.6783 15.8056 15.0736 16.1931 14.6122C16.5805 14.1509 17.1573 13.8801 17.7689 13.8724ZM17.92 16.533H18.2489C18.6711 16.533 19.0133 16.1993 19.0133 15.7877C19.0133 15.3761 18.6711 15.0424 18.2489 15.0424H17.92C17.7181 15.0401 17.5236 15.1166 17.38 15.255C17.2364 15.3934 17.1555 15.5821 17.1556 15.779C17.1555 16.1921 17.4964 16.5282 17.92 16.533ZM6.73778 12.3818H12.3822C12.8044 12.3818 13.1467 12.0481 13.1467 11.6365C13.1467 11.2249 12.8044 10.8912 12.3822 10.8912H6.73778C6.31903 10.8912 5.9782 11.2196 5.97333 11.6278C5.97331 12.0409 6.31415 12.3771 6.73778 12.3818Z" fill="#60708F"/>
<path d="M11.4045 0.271386L8.2431 3.71681C7.91718 4.0708 7.91718 4.64897 8.25396 5.00295C8.57988 5.35693 9.11222 5.35693 9.43814 5.00295L11.1655 3.11504L11.1655 8L12.8386 8L12.8386 3.11504L14.566 5.00295C14.8919 5.35693 15.4242 5.35693 15.7501 5.00295C15.9131 4.82596 16 4.58997 16 4.35398C16 4.12979 15.9131 3.89381 15.7501 3.71681L12.5887 0.271386C12.4366 0.0943953 12.2193 1.92777e-09 12.002 1.14254e-08C11.7739 2.13979e-08 11.5675 0.0943953 11.4045 0.271386" fill="#60708F"/>
</svg>
